<?xml version="1.0" encoding="UTF-8" standalone="no"?>
<svg
        version="1.1"
        viewBox="0 0 588 588"
        id="svg1"
        xmlns="http://www.w3.org/2000/svg"
        xmlns:svg="http://www.w3.org/2000/svg">
    <path
            d="m96.39 24.591c-8.491 5.656-25.39 24.127-25.39 27.751 0 1.075 0.829 1.658 2.358 1.658 1.675 0 4.415-2.279 9.468-7.875 3.911-4.332 10.024-10.239 13.584-13.128 7.017-5.693 8.24-7.508 6.485-9.624-1.543-1.859-2.02-1.77-6.505 1.218m256.28 1.076c-1.506 1.505-0.497 4.39 2.083 5.96 10.84 6.593 17.232 11.348 24.654 18.339 8.075 7.607 11.868 9.606 12.875 6.784 0.802-2.247-2.015-6.258-9.064-12.908-13.567-12.799-27.585-21.139-30.548-18.175m-28.467 10.533c-2.487 2.487-1.343 4.685 3.05 5.858 6.032 1.61 17.671 7.119 24.205 11.456 3.063 2.033 9.608 7.474 14.543 12.091s9.599 8.395 10.365 8.395 1.942-0.662 2.614-1.472c4.73-5.7-26.765-30.358-45.909-35.943-6.516-1.901-7.317-1.936-8.868-0.385m-224.2 8.369c-6.303 4.154-13.933 10.177-15.718 12.408-1.671 2.089-1.585 4.97 0.17 5.643 1.458 0.559 5.005-1.705 14.289-9.12 2.755-2.2 6.447-4.785 8.204-5.744 2.375-1.296 3.113-2.323 2.875-4-0.493-3.475-3.718-3.208-9.82 0.813m83.735-1.482c-31.737 3.356-63.184 18.615-83.752 40.638-17.253 18.475-23.983 33.839-23.983 54.753 0 12.535 1.909 19.631 6.522 24.244l3.327 3.327-5.208 5.726c-19.927 21.904-37.641 47.497-37.641 54.383 0 4.805 2.771 4.29 19.076-3.549 24.403-11.733 56.46-24.609 61.267-24.609 0.837 0 1.813 0.917 2.169 2.038 0.873 2.751 14.02 13.845 22.421 18.922l6.809 4.114 1.233 6.213c1.673 8.436 5.739 26.776 7.695 34.713 4.287 17.4 15.078 41.549 24.872 55.662 14.327 20.646 33.588 38.744 56.458 53.05 20.283 12.687 29.855 19.665 28.264 20.603-0.42 0.247-2.339 0.788-4.264 1.201-6.161 1.322-26.143 10.28-37.812 16.951l-11.311 6.468-3.993-1.598c-9.094-3.639-23.722 0.15-30.314 7.852l-3.172 3.706-45.449 0.498c-52.146 0.57-58.544 0.982-60.086 3.864-0.805 1.504-0.696 2.339 0.458 3.492 1.332 1.332 4.105 1.379 22.847 0.383 11.733-0.623 34.719-1.133 51.082-1.132h29.75v5.289c0 3.314 0.747 6.753 2 9.211 1.1 2.158 2 4.008 2 4.112s-2.363 0.737-5.25 1.408c-6.892 1.601-18.631 6.454-26.798 11.078-14.891 8.432-17.984 9.925-16.86 8.141 0.602-0.957 3.64-3.63 6.751-5.941 7.915-5.879 14.106-11.333 15.213-13.402 1.373-2.566-1.428-4.897-5.877-4.892-2.024 2e-3 -10.654 1.313-19.179 2.913s-18.2 3.233-21.5 3.63c-7.534 0.905-10.5 1.998-10.5 3.869 0 3.918 7.821 3.667 29.772-0.959 9.094-1.916 16.673-3.345 16.842-3.176s-3.063 2.946-7.181 6.173c-12.498 9.789-17.279 16.04-16.041 20.972 0.953 3.798 5.668 3.437 13.017-0.994 9.4-5.668 29.806-16.243 34.654-17.959 2.44-0.864 8.426-2.461 13.301-3.55 9.835-2.195 10.739-1.954 13.067 3.497 4.575 10.712 12.454 9.248 8.148-1.514-0.868-2.17-1.579-4.355-1.579-4.855s2.588-1.429 5.75-2.064 6.695-1.373 7.849-1.641c1.607-0.373 2.387 0.205 3.323 2.466 1.824 4.404 6.431 8.417 9.21 8.022 3.292-0.468 3.475-3.324 0.444-6.926-1.417-1.684-2.576-3.434-2.576-3.888 0-1.308 20.454-2.36 32-1.646 17.802 1.101 18.238 1.228 21.417 6.254 3.095 4.892 5.19 6.372 9.017 6.372 3.376 0 3.318-2.148-0.183-6.738l-2.75-3.605 4 0.661c2.199 0.363 4.787 0.665 5.749 0.671 1.165 7e-3 1.75 0.793 1.75 2.351 0 3.445 5.821 14.497 8.591 16.312 2.63 1.723 5.409 1.21 5.409-1 0-0.776-1.113-3.841-2.473-6.812s-2.598-6.437-2.75-7.702c-0.26-2.159 0.09-2.31 5.705-2.469 5.645-0.159 6.058-0.01 7.337 2.649 2.649 5.507 9.29 7.665 12.328 4.005 0.99-1.193 0.675-1.891-1.717-3.802-1.612-1.288-2.683-2.591-2.382-2.896 0.302-0.305 12.677-0.847 27.5-1.204 27.26-0.656 45.013 0.428 63.403 3.871l6.45 1.208 5.57 10.5c24.154 45.534 49.729 76.089 80.643 96.345 11.166 7.316 14.396 8.553 16.311 6.245 1.065-1.283 0.679-2.605-2.324-7.976-4.1-7.332-4.281-7.987-1.851-6.715 6.905 3.613 17.289 7.24 22.197 7.753 5.408 0.566 5.952 0.432 7.431-1.825 2.588-3.95 1.854-5.703-13.527-32.327-15.65-27.091-47.583-88.102-46.617-89.067 0.194-0.194 2.355 2.158 4.803 5.226 7.641 9.576 30.795 30.426 42.936 38.663 3.027 2.054 6.382 2.16 7.967 0.25 1.334-1.607 0.258-4.215-4.887-11.838-2.845-4.216-4.024-6.627-12.833-26.234-4.354-9.691-9.22-21.739-9.22-22.828 0-0.37 8.239-0.672 18.309-0.672 20.282 0 23.019-0.65 20.732-4.923-1.206-2.253-1.306-2.262-21.212-1.948-18.648 0.295-20.071 0.191-21.042-1.545-2.782-4.972-20.324-59.74-27.411-85.584-11.091-40.444-22.709-76.836-30.402-95.227-21.606-51.653-44.634-86.732-79.938-121.77-19.601-19.455-37.814-33.618-52.688-40.971-20.457-10.113-44.159-16.026-64.273-16.033-8.367-3e-3 -11.201-0.377-13.575-1.792-11.086-6.607-28.463-11.823-44-13.207-12.224-1.089-13.665-1.084-24.765 0.09m-0.557 8.023c-29.171 3.388-57.641 17.223-77.253 37.542-16.362 16.951-23.873 32.991-23.91 51.06-0.016 7.594 2.315 15.598 5.887 20.219l1.879 2.431 3.076-2.589c3.041-2.558 3.055-2.615 1.247-4.93-5.051-6.469-6.351-10.828-5.895-19.776 0.51-10.013 3.078-16.03 9.792-22.949 12.854-13.244 35.941-11.259 45.519 3.914 3.656 5.791 5.93 16.619 4.7 22.384l-0.968 4.541 8.626 8.316c12.883 12.419 23.25 18.779 41.674 25.565 13.063 4.811 17.448 7.15 17.448 9.304 0 3.036-2.739 3.327-9.495 1.009-3.447-1.183-6.457-2.151-6.688-2.151-0.904 0 0.991 13.063 2.086 14.383 0.64 0.771 2.611 1.974 4.38 2.674 3.999 1.582 6.717 3.839 6.717 5.579 0 2.528-4.872 2.528-14.666 1e-3 -16.852-4.348-37.325-7.765-50.084-8.358-6.738-0.314-12.25-0.291-12.25 0.05 0 2.328 40.519 25.671 44.561 25.671 2.172 0 3.818 3.838 2.386 5.564-1.748 2.106-4.229 1.781-11.469-1.501-7.962-3.61-7.828-4.455-2.546 16.121 7.649 29.791 15.765 49.078 29.169 69.316 9.27 13.996 26.865 31.814 43.409 43.958 6.595 4.841 13.678 10.41 15.74 12.375 2.063 1.965 3.75 3.301 3.75 2.97 0-1.254-17.016-26.018-23.699-34.49-18.928-23.996-38.247-58.067-51.355-90.575-2.675-6.633-2.007-11.008 1.763-11.55 1.885-0.27 2.991 1.43 8.461 13 23.6 49.923 42.193 78.539 65.522 100.84 14.582 13.941 31.587 24.131 56.042 33.582 11.686 4.517 27.991 8.389 35.323 8.389h4.243l-3.9-2.836c-4.708-3.424-10.418-9.648-13.875-15.125-4.43-7.017-5.976-12.825-6.002-22.539-0.029-11.22 2.063-15.413 9.017-18.068 6.06-2.315 12.109-1.385 21.392 3.286 11.817 5.947 21.023 16.481 26.027 29.782 2.83 7.521 3.147 19.123 0.68 24.904-0.916 2.146-1.514 4.054-1.329 4.239s1.682 0.605 3.328 0.935c2.795 0.559 3.072 0.335 4.188-3.391 2.683-8.955 3.533-19.878 2.316-29.774-0.645-5.254-1.856-11.187-2.691-13.185-0.956-2.287-9.35-11.431-22.655-24.68-25.911-25.801-31.053-31.367-40.547-43.89-22.565-29.764-38.395-66.132-42.305-97.193-0.695-5.528-0.989-15.765-0.709-24.703 0.54-17.199 2.815-26.49 8.753-35.744 4.291-6.687 12.727-14.24 19.762-17.695 4.955-2.433 6.925-2.82 14.25-2.804 10.053 0.023 16.216 1.882 24.953 7.529 6.732 4.351 9.151 7.916 7.072 10.422-1.777 2.141-3.837 1.911-7.431-0.83-1.702-1.298-6.019-3.856-9.594-5.686-12.641-6.469-26.175-3.889-36.282 6.916-9.276 9.918-12.718 21.335-12.718 42.191 0 25.586 5.288 46.672 18.418 73.439 7.771 15.842 18.151 32.195 28.676 45.176 6.66 8.214 40.697 43.324 42 43.324 0.416 0-0.307-2.587-1.608-5.75-1.3-3.162-3.733-9.35-5.407-13.75-8.532-22.426-15.624-39.55-22.365-54-7.094-15.209-11.739-27.245-13.169-34.126-0.47-2.26-0.179-3.597 1.05-4.826 1.598-1.598 1.803-1.591 3.469 0.127 0.973 1.004 4.085 7 6.914 13.325 6.59 14.733 13.735 28.029 21.494 40 8.842 13.64 34.724 47.788 45.097 59.5 9.574 10.81 23.892 25.5 24.855 25.5 0.327 0-1.591-4.387-4.261-9.75s-7.695-16.725-11.165-25.25-10.699-25.85-16.064-38.5c-13.916-32.813-15.204-37.605-10.299-38.304 2.818-0.402 5.441 3.038 9.218 12.088 3.275 7.846 16.053 32.482 20.601 39.716 15.476 24.619 41.674 58.999 57.096 74.928l2.351 2.427-2.009-6.427c-1.104-3.536-6.007-20.153-10.895-36.928-13.385-45.936-22.191-72.939-28.991-88.904-17.163-40.293-36.2-72.098-59.169-98.854-11.209-13.057-37.556-38.071-47.915-45.49-21.646-15.503-50.652-26.331-75.922-28.341l-8.5-0.676 2.64 2.883c7.184 7.843 9.056 18.382 3.266 18.382-0.237 0-1.954-2.362-3.815-5.25s-4.921-7.012-6.8-9.166l-3.417-3.916-4.738 1.193c-5.405 1.361-6.636 0.948-6.636-2.227 0-1.533 0.875-2.579 2.75-3.29 2.705-1.025 2.637-1.095-4.106-4.199-16.25-7.481-37.116-10.399-57.466-8.035m15.166 28.909c-10.099 2.052-20.037 7.734-27.51 15.725-8.654 9.256-12.397 19.971-11.626 33.288 1.145 19.774 16.874 35.248 37.307 36.702 13.688 0.974 27.58-6.257 35.992-18.734 5.741-8.516 7.865-16.073 7.282-25.915-0.55-9.277-3.101-15.397-8.789-21.085-5.565-5.565-11.819-8.216-20.746-8.793-20.267-1.312-35.918 11.707-37.018 30.793-0.752 13.05 4.527 22.653 15.179 27.613 10.982 5.113 25.141 1.738 32.846-7.83 4.312-5.353 5.745-9.536 5.717-16.682-0.054-13.72-10.428-23.275-23.5-21.642-10.114 1.264-17.478 9.644-17.478 19.889 0 12.216 9.031 19.203 19.603 15.166 7.427-2.836 10.342-9.851 6.879-16.549-1.575-3.046-4.585-4.371-8.63-3.798-3.096 0.438-3.386 5.114-0.352 5.677 7.507 1.394 4.601 9.156-3.427 9.156-7.367 0-10.293-7.729-6.063-16.019 5.392-10.57 20.649-9.174 25.415 2.326 1.751 4.224 1.832 5.288 0.721 9.476-1.836 6.927-5.619 11.776-11.455 14.684-5.866 2.923-8.421 3.099-15.3 1.057-8.825-2.621-13.886-10.18-13.743-20.524 0.11-7.955 2.116-12.803 7.433-17.962 6.134-5.953 11.26-8.038 19.767-8.038 8.28 0 12.224 1.368 17.633 6.118 11.944 10.486 11.36 29.858-1.299 43.13-7.908 8.291-14.48 11.27-24.682 11.188-9.838-0.079-15.63-2.562-23.123-9.911-17.044-16.718-10.021-46.043 13.932-58.182 2.826-1.432 8.975-3.38 13.665-4.33 7.846-1.588 8.526-1.917 8.526-4.119 0-2.146-0.465-2.411-4.5-2.557-2.475-0.09-6.37 0.217-8.656 0.682m-154.77 13.548c-2.732 2.732-0.254 5.208 8.029 8.02 5.279 1.792 7.395 1.337 7.395-1.591 0-1.51-1.28-2.622-4.75-4.128-8.838-3.834-9.088-3.888-10.674-2.301m65.924 18.086c-5.453 2.86-11.429 9.54-13.51 15.102-4.894 13.081 0.336 25.866 12.012 29.364 3.571 1.07 4.418 0.92 9.705-1.724 7.523-3.76 11.446-9.195 12.07-16.722 0.718-8.661-3.245-14.737-10.277-15.753-8.486-1.226-16.255 7.418-14.41 16.031 1.336 6.234 7.601 8.135 11.862 3.6 2.883-3.069 2.156-5.19-2.438-7.11-1.933-0.807-3.514-1.822-3.514-2.254 0-1.602 2.476-3.187 4.977-3.187 5.983 0 9.528 6.077 7.725 13.242-2.461 9.782-18.588 10.283-23.423 0.728-1.937-3.828-1.574-12.471 0.712-16.952 6.73-13.192 25.948-13.838 32.685-1.098 3.749 7.088 2.859 19.694-1.858 26.33-3.169 4.459 0.178 3.321 4.092-1.392 13.652-16.435 3.166-39.966-17.743-39.818-3.141 0.022-7.004 0.742-8.667 1.613m-85.718 0.347c-8.253 0.535-11.635 2.334-10.406 5.536 0.589 1.537 2.195 1.626 17.564 0.967 9.303-0.399 18.407-1.031 20.231-1.404 3.553-0.727 5.058-3.678 2.677-5.249-1.336-0.882-15.204-0.813-30.066 0.15m227.53 9.843c-1.718 1.119-3.005 4.372-4.689 11.854-2.172 9.653-2.117 12.303 0.258 12.303 1.032 0 2.379-0.605 2.992-1.343 1.352-1.629 5.093-16.114 5.115-19.8 0.015-2.686-1.842-4.209-3.676-3.014m-211.23 7.724c-7.786 2.994-9.266 4.136-8.879 6.845 0.381 2.672 2.717 2.389 13.048-1.58 6.72-2.582 7.75-3.3 7.75-5.405 0-3.212-3.305-3.173-11.919 0.14m101.92 23.885c-2.62 3.559-9.46 8.548-11.722 8.548-0.726 0-1.835-1.128-2.463-2.507-1.019-2.236-1.317-2.348-2.765-1.038-3.512 3.178-9.256 4.713-16.505 4.41-8.954-0.373-9.943 0.281-23.253 15.374-15.329 17.383-30.353 38.034-28.8 39.586 0.222 0.222 5.161-2.115 10.976-5.192 21.766-11.52 51.876-23.043 80.032-30.627 8.589-2.313 28.317-5.237 29.675-4.398 0.454 0.281 0.815 0.146 0.802-0.299s-3.275-2.609-7.25-4.809c-4.697-2.6-10.524-7.238-16.647-13.25-5.182-5.088-9.457-9.238-9.5-9.222-0.044 0.015-1.205 1.556-2.58 3.424m16 33.072c-13.071 2.72-21.115 5.283-17 5.416 7.898 0.255 27.226 2.369 32.139 3.515 3.154 0.736 5.938 1.135 6.187 0.886s0.071-1.89-0.395-3.647-1.1-4.432-1.408-5.944c-0.495-2.425-1.003-2.742-4.292-2.685-2.052 0.036-8.906 1.143-15.231 2.459m26-0.673c0 2.738 2.066 8.398 3.797 10.399 0.832 0.963 2.616 1.75 3.965 1.75 1.931 0 2.306-0.372 1.763-1.75-0.38-0.963-0.941-4.113-1.247-7l-0.558-5.25h-3.86c-3.09 0-3.86 0.369-3.86 1.851m196.51 102.18c0.861 1.664 3.295 7.851 5.409 13.75 6.731 18.777 14.341 37.602 16.778 41.501 6.761 10.822 75.905 79.452 77.967 77.389 0.865-0.865-15.867-34.609-20.499-41.344-2.202-3.202-11.051-12.797-19.663-21.322-24.93-24.678-43.909-47.256-57.789-68.75-3.176-4.918-4.491-5.649-2.203-1.224m55.487 20.685c0 1.954 21.78 47.352 27.031 56.342 4.349 7.446 12.365 15.964 28.084 29.841 13.184 11.64 16.181 14.143 16.526 13.799 0.174-0.174-1.68-5.91-4.12-12.747l-4.437-12.43-10.657-9.953c-11.137-10.4-37.711-42.742-44.927-54.677-6.326-10.463-7.5-12.056-7.5-10.175m-90.98 33.525c-3.917 2.058-5.171 5.465-4.699 12.764 0.489 7.577 2.46 12.27 8.548 20.354 6.013 7.985 14.548 14.058 23.974 17.057 9.315 2.964 9.953 2.575 10.81-6.597 1.142-12.229-5.044-25.783-16.437-36.021-7.757-6.969-17.197-10.183-22.196-7.557m59.266 17.764c1.514 6.139 1.842 16.229 0.804 24.732-1.066 8.734-1.018 9.34 0.892 11.25 2.476 2.476 2.539 3.624 0.268 4.908-1.663 0.941-1.664 1.129-0.012 3.8 0.956 1.546 4.546 7.476 7.978 13.178l6.239 10.368 5.523-0.56c3.037-0.308 10.472-1.041 16.522-1.628 15.824-1.537 16.706-1.78 15.959-4.386-2.418-8.431-5.714-12.723-25.416-33.101-6.349-6.566-13.118-13.569-15.043-15.562s-5.937-6.296-8.915-9.562c-4.21-4.616-5.278-5.381-4.799-3.437m-142.7 4.922c2.85 4.901 13.107 16.611 21.747 24.828 6.153 5.852 8.23 7.25 10.773 7.25 4.799 0 20.987-4.046 20.345-5.085-0.312-0.503-1.072-0.915-1.69-0.915-2.153 0-22.325-9.423-31.758-14.834-5.225-2.998-12.163-7.496-15.417-9.995l-5.917-4.545 1.917 3.296m214.42 26.419c0 0.276 1.917 4.25 4.259 8.831 2.343 4.58 5.562 11.16 7.154 14.621l2.895 6.293 9.843-0.293c5.413-0.161 9.819-0.518 9.79-0.793s-4.415-3.97-9.747-8.21c-5.332-4.241-12.956-10.69-16.944-14.331-3.988-3.642-7.25-6.395-7.25-6.118m-158.35 5.737c-2.669 1.083-9.869 3.291-16 4.906-19.504 5.138-59.385 21.831-57.072 23.889 0.509 0.453 9.41 1.369 19.78 2.035 16.532 1.062 19.06 1.026 20.518-0.293 5.521-4.996 16.827-6.903 27.01-4.556 3.501 0.808 4.708 0.716 6.001-0.454 0.89-0.805 8.696-6.379 17.347-12.387 8.652-6.008 15.439-11.215 15.083-11.571s-2.558-0.647-4.893-0.647-7.772-0.675-12.083-1.5c-9.645-1.845-9.725-1.842-15.691 0.578m-51.147 5.345c-4.95 1.827-11.25 4.304-14 5.503-7.063 3.08-23.5 12.247-23.5 13.106 0 0.395 1.396 0.997 3.102 1.338 2.191 0.439 3.88 0.072 5.75-1.249 3.728-2.633 15.378-8.339 23.648-11.583 15.489-6.075 21.5-8.768 21.5-9.631 0-1.881-7.821-0.689-16.5 2.516m95.866-2.41c-1.173 0.46-10.125 6.595-19.891 13.632l-17.758 12.796 2.892 1.234c4.309 1.84 4.708 1.728 12.601-3.543 4.01-2.678 13.175-8.353 20.369-12.611 7.193-4.258 13.536-8.48 14.097-9.382 0.865-1.393 0.485-1.668-2.535-1.832-1.954-0.107-4.473-0.404-5.597-0.662s-3.004-0.092-4.178 0.368m10.611 12.267c-17.285 9.965-29.718 17.703-31.078 19.342-0.956 1.151 0.152 1.372 6.729 1.339 9.783-0.049 61.307-3.562 61.97-4.226 0.864-0.863-10.712-20.162-13.487-22.485-0.821-0.687-3.77-1.236-6.552-1.22-4.428 0.026-6.62 0.93-17.582 7.25m94.273 8.97c0.228 0.688 1.264 1.414 2.301 1.615 1.631 0.316 1.705 0.148 0.545-1.25-1.586-1.911-3.44-2.149-2.846-0.365m-269.27 3.5c-6.578 3.364-9.559 8.306-9.331 15.47 0.162 5.112 3.52 11.78 5.932 11.78 0.78 0 1.735 0.019 2.123 0.042 0.387 0.023 1.237-2.566 1.887-5.754 1.227-6.015 6.407-15.803 10.847-20.494 1.408-1.489 2.561-2.951 2.561-3.25 0-1.697-9.225-0.245-14.019 2.206m17.351 5.876c-4.01 4.305-8.27 11.75-9.843 17.199-0.657 2.274-0.566 2.308 4.17 1.546 2.662-0.428 6.019-0.71 7.458-0.626 2.43 0.143 2.66-0.212 3.223-4.969 0.413-3.486 1.74-6.829 4.155-10.466l3.548-5.343-2.587-0.984c-4.323-1.643-5.644-1.168-10.124 3.643m281.92-2.903c-1.788 0.222-3.25 0.634-3.25 0.916 0 1.287 10.145 13.483 18.386 22.103 8.11 8.483 21.522 20.048 20.495 17.673-0.217-0.503-1.794-3.615-3.504-6.915-2.556-4.934-10.46-22.622-14.411-32.25-0.839-2.046-1.537-2.235-7.695-2.09-3.724 0.088-8.233 0.342-10.021 0.563m-199.62 1.746c-7.583 2.703-13.671 11.228-12.201 17.084 0.543 2.162 1.165 2.449 5.345 2.461 2.602 7e-3 5.743 0.285 6.981 0.616 1.767 0.474 2.25 0.187 2.25-1.335 0-4.086 3.313-11.369 7.16-15.74l4.01-4.555-4.835 0.044c-2.659 0.024-6.579 0.665-8.71 1.425m173.83 8.281c6.366 22.28 21.418 59.037 37.241 90.942 9.52 19.196 10.168 19.903 23.103 25.23 6.903 2.843 14.199 4.826 14.199 3.86 0-0.243-5.014-9.18-11.142-19.861-12.762-22.244-32.112-59.787-43.296-84.001-4.212-9.12-9.019-18.232-10.683-20.25-2.629-3.19-3.588-3.67-7.331-3.67h-4.305l2.214 7.75m-25.957-5.193c-7.15 0.727-14.913 1.433-17.25 1.569s-4.234 0.501-4.214 0.811 2.158 4.573 4.75 9.475c4.473 8.456 4.969 9.008 9.714 10.811 9.039 3.436 11.492 8.777 4.031 8.777-1.942 0-3.531 0.293-3.531 0.652 0 0.974 8.575 15.677 14.784 25.348 13.947 21.726 28.414 37.451 42.174 45.842 4.652 2.837 8.779 5.158 9.171 5.158s-0.377-2.05-1.71-4.555c-3.795-7.14-18.708-39.837-23.462-51.445-2.366-5.775-7.531-20.175-11.479-32-4.612-13.813-7.679-21.547-8.578-21.632-0.77-0.072-7.25 0.463-14.4 1.189m-212.15 2.163c-2.712 2.886-5.347 8.146-5.347 10.672 0 1.204 1.259 1.34 7.25 0.783 9.521-0.886 26.446-0.859 35.405 0.056l7.155 0.731 0.406-5.231c0.223-2.877 0.271-5.413 0.107-5.635s-6.941-0.981-15.06-1.685c-8.12-0.705-17.585-1.549-21.033-1.876-5.923-0.562-6.415-0.441-8.883 2.185m82.077 0.603c-3.741 3.084-7.362 9.536-7.402 13.189-0.02 1.84 0.459 1.968 5.605 1.5l5.626-0.512 2.932-5.498c1.613-3.024 3.884-6.511 5.048-7.75 1.163-1.238 1.7-2.272 1.191-2.296-0.508-0.024-2.813-0.409-5.121-0.856-3.799-0.735-4.546-0.524-7.879 2.223m93.076 0.755c-9.026 1.228-52.649 3.911-63.679 3.917-7.52 4e-3 -10.034 0.361-11.273 1.6-1.791 1.791-4.878 7.409-4.357 7.929 0.186 0.186 8.432-0.127 18.324-0.697 22.266-1.282 55.57-0.454 64.485 1.603 3.575 0.825 7.674 1.516 9.108 1.535l2.608 0.035-4.413-8.5c-2.427-4.675-4.5-8.441-4.608-8.369-0.107 0.072-2.895 0.499-6.195 0.947m88.5 108.73c0 1.582 16.403 13.196 18.637 13.196 1.706 0-7.468-8.379-12.137-11.084-5.237-3.034-6.5-3.445-6.5-2.112"
            fill="#D4AF37"
            fill-rule="evenodd"
            id="path1"/>
    <defs
            id="defs1">
        <path
                id="wingLabelCurveRev"
                d="M 247.5 53.576            C 256.371 57.871 256.65 57.934 267 57.935            C 292.023 57.937 322.722 67.317 343.5 81.31            C 375.983 103.186 411.489 141.307 433.708 178.162            C 459.137 220.343 471.67 253.168 497.028 344            C 501.422 359.737 516.023 405.018 520.203 415.867            C 520.203 415.867 544.237 472.671 548.984 480.615"
                fill="none"/>
    </defs>
    <path
            style="font-weight:600;font-size:54px;font-family:ui-rounded, 'SF Pro Rounded', 'Segoe UI Rounded', 'Arial Rounded MT Bold', Nunito, Quicksand, system-ui, sans-serif;text-anchor:middle;fill:#d4af37"
            d="m 397.07745,116.28482 5.78189,-5.3206 0.44636,0.48506 15.64233,0.33268 5.40988,5.8789 -18.85725,-0.20501 -0.89272,-0.97011 z m -10.50927,1.42942 28.90945,-26.603023 4.4993,4.889384 -28.90945,26.603019 z m 12.39093,13.4652 2.75901,-15.65349 6.45005,0.15602 -3.83489,21.33757 z m 13.34386,17.17096 q -2.50174,-3.19833 -2.94863,-6.76539 -0.43064,-3.54628 1.08871,-6.91062 1.5356,-3.34357 4.92084,-5.99151 3.38525,-2.64795 7.00022,-3.33316 3.65198,-0.68069 6.99019,0.59129 3.37523,1.2765 5.87697,4.47483 1.62451,2.07684 2.36605,4.30874 0.7623,2.21565 0.66425,4.40129 -0.0981,2.18564 -1.01761,4.17698 -0.88253,1.99586 -2.58019,3.59157 l -4.01253,-5.12979 q 0.77932,-0.84392 1.21381,-1.78633 0.43448,-0.94241 0.46634,-1.97159 0.0689,-1.02465 -0.27393,-2.06205 -0.3428,-1.0374 -1.13881,-2.05505 -1.3321,-1.70301 -3.17908,-2.26682 -1.83073,-0.54304 -3.94974,0.0432 -2.10276,0.60705 -4.28344,2.31279 -2.15991,1.68948 -3.25548,3.58418 -1.05856,1.89921 -0.97237,3.80684 0.0862,1.90763 1.43453,3.6314 0.79601,1.01765 1.68331,1.59567 0.92431,0.58253 1.89838,0.75792 0.99485,0.15914 2.03492,-0.0519 1.04007,-0.21099 2.07932,-0.72261 l 4.04502,5.17133 q -1.92056,1.26794 -4.07474,1.68088 -2.11716,0.41746 -4.2991,-0.0182 -2.16118,-0.45194 -4.16506,-1.7299 -1.98764,-1.2572 -3.61215,-3.33404 z m 15.76117,21.84633 q -1.56507,-2.44189 -1.73109,-4.99752 -0.14382,-2.56985 1.23775,-4.9586 1.40376,-2.40297 4.40063,-4.32374 l 14.65133,-9.39043 3.58543,5.59415 -13.76337,8.8213 q -2.57508,1.65044 -3.11026,3.74726 -0.52095,2.11902 0.90185,4.33892 0.95327,1.48733 2.29249,2.25752 1.33922,0.7702 3.0314,0.62517 1.71438,-0.15925 3.71229,-1.43976 l 13.2528,-8.49406 3.59966,5.61634 -23.44213,15.02468 -3.52852,-5.50535 5.97152,-3.82731 0.69717,1.08775 q -3.85568,0.87399 -6.8438,-0.12342 -2.95169,-0.98944 -4.91515,-4.0529 z m 16.76582,28.73879 q -1.91523,-3.5805 -1.74281,-7.1713 0.18486,-3.56756 2.25948,-6.62094 2.08706,-3.03013 5.8768,-5.05728 3.78975,-2.02716 7.46868,-2.0813 3.71462,-0.0433 6.78476,1.78312 3.10582,1.83725 5.02105,5.41775 1.24366,2.32499 1.59083,4.65109 0.37042,2.31365 -0.10158,4.44998 -0.47199,2.13632 -1.7199,3.94012 -1.21222,1.81462 -3.15873,3.09503 l -3.07183,-5.74274 q 0.9127,-0.69752 1.50259,-1.5513 0.58989,-0.85378 0.79804,-1.86219 0.24384,-0.9976 0.0843,-2.07846 -0.15953,-1.08086 -0.76892,-2.22011 -1.0198,-1.9065 -2.74249,-2.77916 -1.71025,-0.84941 -3.89847,-0.6358 -2.17578,0.23687 -4.61703,1.54271 -2.41799,1.2934 -3.82271,2.97176 -1.36903,1.68918 -1.61177,3.58326 -0.24274,1.89408 0.78949,3.82383 0.60939,1.13925 1.38423,1.86107 0.81053,0.73264 1.74,1.07272 0.95272,0.32765 2.01358,0.29844 1.06085,-0.0292 2.17253,-0.35474 l 3.0967,5.78924 q -2.1098,0.91923 -4.30289,0.95604 -2.1574,0.0476 -4.23208,-0.75637 -2.05144,-0.81643 -3.80605,-2.41958 -1.74216,-1.5799 -2.98582,-3.90489 z m 18.80124,16.9375 7.19295,-3.16236 0.2653,0.60343 14.69233,5.37855 3.21543,7.31364 -17.77546,-6.29849 -0.53059,-1.20688 z m -10.4061,-2.04965 35.96475,-15.81184 2.67421,6.08263 -35.96474,15.81184 z m 7.36471,16.75136 7.67784,-13.91742 6.05222,2.23565 -10.53585,18.94713 z m 7.24892,20.64573 q -1.39887,-3.84006 -0.75438,-7.38618 0.6783,-3.53037 3.15469,-6.28459 2.48542,-2.72945 6.54844,-4.20954 4.06303,-1.4801 7.7217,-0.98886 3.69246,0.507 6.48261,2.77387 2.79916,2.29164 4.19804,6.1317 1.4079,3.86483 0.7296,7.3952 -0.67829,3.53037 -3.18848,6.26884 -2.4764,2.75422 -6.53942,4.23432 -4.06303,1.4801 -7.73072,0.96408 -3.65867,-0.49125 -6.44881,-2.75812 -2.76537,-2.2759 -4.17327,-6.14072 z m 5.22743,-1.90428 q 0.73103,2.00674 2.27926,3.09841 1.55725,1.11645 3.72892,1.22334 2.20546,0.12263 4.80679,-0.82499 2.6261,-0.95665 4.21114,-2.46011 1.61884,-1.48771 2.0931,-3.34421 0.50805,-1.84075 -0.22297,-3.84749 -0.73102,-2.00673 -2.31306,-3.11416 -1.55725,-1.11644 -3.76272,-1.23908 -2.17166,-0.10689 -4.79776,0.84976 -2.6261,0.95665 -4.22017,2.43534 -1.58504,1.50346 -2.0593,3.35996 -0.47425,1.85649 0.25677,3.86323 z m 3.91096,28.5963 q -0.87851,-2.76414 -0.37632,-5.27543 0.52732,-2.51928 2.48093,-4.46819 1.97874,-1.9569 5.37109,-3.03508 l 16.58486,-5.27106 2.01259,6.33239 -15.57971,4.95161 q -2.91492,0.92643 -3.97539,2.81282 -1.05249,1.91152 -0.25384,4.42438 0.53509,1.68361 1.62886,2.77466 1.09377,1.09105 2.76569,1.38968 1.69705,0.29064 3.95862,-0.42814 l 15.00176,-4.76792 2.02057,6.35753 -26.53576,8.43371 -1.98065,-6.23189 6.75959,-2.14836 0.39134,1.2313 q -3.95044,-0.15546 -6.57783,-1.89344 -2.59427,-1.72083 -3.6964,-5.18857 z m 23.75231,21.83804 -15.10443,4.43191 -1.87076,-6.37575 26.71739,-7.83935 1.84106,6.27454 -6.80585,1.99695 -0.36376,-1.23972 q 3.97129,0.23617 6.5265,2.01447 2.56264,1.80361 3.57968,5.26978 0.82402,2.80836 0.24061,5.31525 -0.55812,2.49945 -2.55474,4.40428 -1.99662,1.90482 -5.43749,2.91444 l -16.69837,4.89959 -1.87818,-6.40104 15.68635,-4.60265 q 2.93486,-0.86114 4.03717,-2.72339 1.10973,-1.83695 0.35252,-4.4176 -0.48996,-1.66984 -1.5591,-2.78503 -1.06914,-1.11519 -2.74141,-1.47636 -1.66484,-0.33587 -3.96719,0.33968 z m 22.44448,34.31677 -5.15099,1.45498 -4.67314,-16.54407 5.15099,-1.45498 z m 3.95347,-13.9394 1.81335,6.41971 -26.41469,7.46125 q -1.42096,0.40137 -1.81435,1.14266 -0.39338,0.74129 0.0438,2.28913 0.17918,0.63436 0.40854,1.44634 0.22935,0.81198 0.36553,1.29409 l -5.15099,1.45498 q -0.18635,-0.65974 -0.49455,-1.75083 -0.30103,-1.06572 -0.59489,-2.10607 -1.16112,-4.11065 -0.0637,-6.53035 1.12282,-2.42687 4.54835,-3.39447 z m -26.83936,37.08734 q -1.20914,-3.98669 -0.30538,-7.45697 0.90376,-3.47028 3.55043,-6.00885 2.67955,-2.521 6.7167,-3.74544 4.06238,-1.2321 7.70618,-0.57384 3.65146,0.68349 6.31536,3.01661 2.66391,2.33312 3.79652,6.06749 0.87242,2.87647 0.57484,5.52917 -0.29758,2.65271 -1.65202,4.90957 -1.32922,2.24921 -3.60217,3.9305 -2.24772,1.67364 -5.30081,2.59963 l -1.74102,0.52804 -6.97169,-22.98652 4.3904,-1.33159 6.00744,19.80727 -2.05068,-2.49156 q 2.2709,-0.68875 3.65845,-2.01884 1.3952,-1.30486 1.82681,-3.06141 0.4645,-1.73897 -0.15538,-3.78277 -0.61222,-2.01858 -1.97209,-3.23178 -1.33465,-1.22085 -3.21963,-1.53085 -1.88498,-0.31 -4.15588,0.37875 l -2.7503,0.83416 q -2.29613,0.6964 -3.79227,2.03187 -1.49613,1.33548 -1.98813,3.16545 -0.48435,1.8552 0.18144,4.0504 0.48213,1.58963 1.33653,2.6806 0.85439,1.09097 1.96483,1.66344 1.11044,0.57247 2.35302,0.58134 l 1.80606,5.9548 q -2.75197,0.28359 -5.2657,-0.82762 -2.50608,-1.08599 -4.42211,-3.3153 -1.8908,-2.23696 -2.83975,-5.36575 z m 5.85491,16.61644 26.50642,-8.52551 1.96184,6.09949 -4.39264,1.41285 0.0242,0.0753 q 2.5183,-0.007 4.19859,1.17004 1.68836,1.2019 2.51184,3.76218 0.20991,0.65262 0.34628,1.16271 0.14444,0.53519 0.21534,0.92785 l -5.62257,1.80844 q -0.0548,-0.34246 -0.25395,-1.22011 -0.19919,-0.87764 -0.50598,-1.83147 -0.47633,-1.48095 -1.57475,-2.48483 -1.06525,-0.98686 -2.67992,-1.27074 -1.60659,-0.25879 -3.68996,0.41131 l -15.01026,4.82789 z"
            id="text1"
            transform="translate(14,8)"
            aria-label="kcuckounter"/>
</svg>
