<svg baseProfile="full" height="77" shape-rendering="geometricPrecision" version="1.1" viewBox="7 0 350 350" xmlns="http://www.w3.org/2000/svg">
    <path d="M 107.4 9.765 C 104.944 11.405 103.773 15.728 103.306 24.873 C 103.036 30.168 103.26 37.2 103.805 40.5 C 104.35 43.8 104.649 46.654 104.471 46.843 C 104.293 47.032 101.023 44.107 97.204 40.343 C 77.266 20.692 50.975 8.426 42.108 14.637 C 40.086 16.053 39.832 16.905 40.223 20.972 C 40.815 27.135 45.824 34.652 56.934 46.051 L 65.5 54.84 L 56.461 55.901 C 41.507 57.657 29.938 62.75 23.028 70.621 C 18.932 75.286 18.807 80.305 22.75 81.8 C 27.86 83.738 35.705 84.043 52.365 82.95 C 64.488 82.154 71.592 82.162 78.73 82.979 C 89.197 84.177 100 86.029 100 86.625 C 100 86.826 97.849 89.659 95.221 92.921 C 80.364 111.358 73 133.106 73 158.545 C 73 184.071 79.484 200.596 97.64 221.337 C 114.099 240.139 121.385 250.747 126.258 263 C 129.488 271.123 131.42 283.985 129.908 287.303 C 128.856 289.612 118.251 297.175 108.5 302.571 C 101.626 306.375 100 307.925 100 310.67 C 100 315.995 112.153 319.553 127.739 318.791 C 135.112 318.431 138.54 317.781 141.75 316.137 C 144.087 314.939 146 314.359 146 314.847 C 146 315.336 143.525 319.454 140.5 324 C 137.475 328.546 135 333.061 135 334.034 C 135 337.799 146.022 339.168 155.661 336.602 C 161.808 334.966 170.574 331.049 177.158 326.998 C 181.887 324.088 181.919 324.083 180.837 326.457 C 180.237 327.775 180.037 330.011 180.392 331.426 C 180.973 333.74 181.517 333.999 185.769 333.99 C 194.2 333.971 214.329 331.939 221 330.432 C 224.575 329.625 231.245 327.784 235.821 326.342 C 235.821 326.342 241.437 324.787 244.142 323.719 C 257.732 318.351 271.86 309.722 282.557 297.734 C 282.557 297.734 283.943 295.59 286.571 292.364 C 289.095 289.264 292.103 284.79 293.253 282.421 L 295.346 278.115 L 303.257 285.557 C 311.875 293.664 315.19 294.879 317.123 290.637 C 318.478 287.661 315.404 271.033 311.459 260 C 305.252 242.643 293.624 222.258 282.732 209.64 C 277.707 203.818 277.685 203.762 279.367 201.14 C 286.335 190.273 289.78 180.41 291.988 165 L 293.636 153.5 L 308.203 153.348 C 323.32 153.189 327.003 152.357 327.003 149.1 C 327.003 144.657 320.331 140.038 304.503 133.524 C 299.55 131.485 300.335 130.939 312.3 128.102 C 327.733 124.441 334.509 120.586 333.833 115.848 C 333.552 113.873 331.956 113.009 323.003 109.985 C 311.777 106.193 298.063 99.202 290.281 93.304 C 287.653 91.313 279.653 84.64 272.503 78.476 C 252.954 61.624 239.927 53.931 221.503 48.357 C 213.284 45.87 211.028 45.628 195.503 45.567 C 181.814 45.513 177.146 45.868 171.538 47.387 C 161.618 50.075 149.183 55.261 141.579 59.881 L 135.041 63.853 L 134.022 59.927 C 133.461 57.767 132.523 54.087 131.937 51.75 C 127.374 33.553 114.639 8.959 109.809 9.015 C 109.091 9.024 108.008 9.361 107.403 9.765 M 109.38 31 C 109.631 39.623 110.537 49.756 111.422 53.838 C 114.067 66.039 111.779 66.178 101.875 54.416 C 86.997 36.749 63.44 20.421 51.119 19.237 C 46.597 18.803 46.003 18.965 46.003 20.633 C 46.003 23.73 54.112 34.853 63.906 45.191 C 72.176 53.92 73.655 55.044 78.795 56.509 C 85.02 58.283 94.334 63.882 95.887 66.783 C 96.483 67.896 96.508 69.172 95.952 70.054 C 95.174 71.288 94.563 71.217 91.772 69.564 C 78.985 61.992 77.282 61.496 64.503 61.624 C 54.489 61.725 51.179 62.177 44.503 64.357 C 36.955 66.821 27.177 72.899 26.264 75.693 C 25.61 77.695 31.628 78.097 50.003 77.279 C 83.25 75.799 108.003 79.58 108.003 86.139 C 108.003 86.556 105.77 89.58 103.04 92.86 C 86.665 112.537 78.998 133.146 78.823 157.96 C 78.722 172.251 80.119 180.073 84.723 191 C 89.055 201.283 93.673 207.907 107.032 223 C 118.879 236.385 125.753 246.445 129.965 256.564 C 133.408 264.833 136.003 274.137 136.003 278.21 C 136.003 279.745 136.341 280.988 136.753 280.974 C 138.282 280.922 144.155 271.039 146.615 264.379 C 150.71 253.295 150.871 253 152.859 253 C 155.258 253 156.421 254.472 157.993 259.5 C 160.326 266.962 165.282 279 166.021 279 C 167.246 279 170.888 269.608 172.681 261.826 C 173.609 257.797 174.705 254.104 175.116 253.62 C 175.527 253.135 178.741 252.802 182.258 252.878 C 197.46 253.207 216.105 247.157 224.235 239.256 L 227.967 235.63 L 224.235 234.237 C 200.692 225.451 185.33 223.294 170.503 226.692 C 166.599 227.586 161.217 227.548 160.288 226.619 C 159.552 225.883 160.118 224.807 165.339 217.005 C 173.557 204.725 178.185 191.135 179.983 174 C 180.531 168.775 181.452 162.826 182.03 160.781 C 183.434 155.809 187.383 151.295 191.03 150.494 C 192.665 150.135 193.994 149.539 193.983 149.171 C 193.972 148.802 191.673 147.15 188.873 145.5 C 171.136 135.045 160.988 108.833 166.495 87.693 C 170.896 70.795 181.299 60.088 199.283 53.946 L 207.503 51.139 L 196.341 51.069 C 178.311 50.957 163.345 54.736 148.953 63.034 C 138.311 69.17 134.741 71 133.414 71 C 131.086 71 129.657 67.709 126.373 54.778 C 123.056 41.718 115.383 23.394 110.973 18 L 108.929 15.5 L 109.38 31 M 207.003 58.078 C 195.057 60.192 182.057 68.933 176.332 78.702 C 166.444 95.575 170.575 120.541 185.672 135.138 C 193.064 142.286 198.077 145.368 207.411 148.501 C 221.197 153.129 238.904 151.322 252.914 143.858 C 256.99 141.686 260.927 140.141 261.664 140.423 C 263.376 141.08 263.321 145.736 261.503 154 C 258.394 168.136 260.192 181.074 266.578 190.5 C 272.864 199.779 272.758 199.687 274.566 197.441 C 279.942 190.765 285.672 173.433 286.61 161.009 C 286.984 156.048 287.815 151.271 288.456 150.395 C 290.251 147.94 297.427 147.002 309.503 147.643 C 322.712 148.343 322.586 147.782 308.129 141.507 C 295.559 136.051 292.003 133.627 292.003 130.515 C 292.003 127.697 295.001 126.419 311.917 122.032 C 318.195 120.404 323.717 118.686 324.188 118.215 C 324.662 117.741 321.341 115.953 316.73 114.201 C 300.437 108.012 284.05 97.316 265.866 81 C 261.882 77.425 259.002 75.4 259.466 76.5 C 267.951 96.61 266.359 114.362 254.904 127.375 C 246.645 136.758 236.84 141.081 223.808 141.085 C 199.626 141.093 182.787 125.265 182.76 102.5 C 182.749 93.663 184.299 88.331 189.015 80.981 C 196.791 68.864 215.513 63.973 229.557 70.391 C 237.268 73.915 241.199 77.817 244.542 85.266 C 248.12 93.239 247.688 101.348 243.265 109.212 C 236.192 121.788 218.929 125.02 208.366 115.746 C 206.46 114.072 204.249 111.442 203.452 109.901 C 200.541 104.273 202.303 92.486 206.586 88.931 C 207.355 88.293 209.621 87.208 211.621 86.52 C 220.116 83.6 231.343 90.526 229.569 97.593 C 228.743 100.885 226.261 100.616 224.206 97.01 C 218.206 86.479 204.83 93.548 208.132 105.505 C 209.441 110.246 214.525 113.919 220.809 114.663 C 227.43 115.448 233.667 112.535 237.639 106.804 C 240.093 103.263 240.498 101.724 240.5 95.929 C 240.503 90.028 240.122 88.637 237.472 84.864 C 235.805 82.49 232.249 79.192 229.569 77.535 C 225.557 75.055 223.391 74.457 217.289 74.149 C 207.473 73.654 202.686 75.527 196.173 82.414 C 187.368 91.724 185.704 104.388 191.681 116.594 C 194.805 122.974 199.735 127.773 207.217 131.715 C 212.027 134.249 213.448 134.5 223.003 134.5 C 232.474 134.5 234.061 134.226 239.193 131.706 C 242.609 130.028 246.903 126.702 249.937 123.382 C 258.799 113.685 261.053 100.633 256.507 85.326 C 253.416 74.917 243.202 64.453 231.266 59.465 C 226.569 57.503 214.238 56.798 207.003 58.078 M 116.303 129.862 C 96.917 136.56 85.918 155.775 88.958 177.631 C 92.338 201.932 112.77 219.13 138.003 218.911 C 147.627 218.828 153.399 217.162 153.806 214.349 C 154.221 211.478 152.611 211.118 144.713 212.314 C 125.631 215.205 106.116 205.501 98.459 189.315 C 88.878 169.064 95.84 146.609 114.546 137.425 C 119.791 134.85 121.579 134.5 129.503 134.5 C 137.488 134.5 139.236 134.848 145.003 137.587 C 152.812 141.295 159.46 147.564 163.431 154.966 C 165.739 159.27 166.454 162.07 166.809 168.216 C 167.36 177.72 166.016 182.937 161.368 189.339 C 156.188 196.474 151.13 198.5 138.503 198.5 C 127.304 198.5 123.238 197.042 117.114 190.83 C 111.487 185.122 110.532 182.446 110.517 172.34 C 110.504 163.762 110.694 162.909 113.503 158.929 C 120.962 148.361 136.184 147.128 145.401 156.345 C 153.444 164.388 153.816 175.478 146.211 180.453 C 140.636 184.1 137.824 184.457 132.663 182.174 C 128.956 180.534 127.964 179.517 127.131 176.503 C 125.883 171.983 127.109 168.272 130.238 167.094 C 133.093 166.019 137.606 168.174 138.518 171.047 C 138.965 172.456 139.866 173.018 141.339 172.808 C 144.607 172.343 144.594 168.693 141.312 165.02 C 136.091 159.178 125.098 160.106 122.121 166.641 C 121.506 167.99 121.003 171.157 121.003 173.679 C 121.003 181.849 126.876 188.157 135.814 189.586 C 147.805 191.503 159.45 179.132 157.554 166.489 C 156.291 158.071 151.306 151.229 143.566 147.289 C 130.171 140.472 113.425 145.513 106.796 158.357 C 103.552 164.642 103.157 176.772 105.955 184.188 C 112.884 202.559 134.946 210.533 154.988 201.911 C 167.739 196.426 175.69 179.616 172.861 164.121 C 170.588 151.664 161.098 138.66 150.239 133.12 C 140.117 127.956 125.797 126.582 116.303 129.862 M 250.173 152.065 C 240.665 156.285 234.295 157.251 221.005 156.485 C 214.13 156.088 204.975 155.709 200.661 155.641 C 193.316 155.525 192.67 155.689 190.505 158.205 C 186.247 163.155 184.866 175.529 187.38 186.212 C 188.567 191.253 189.571 193.296 193.463 198.582 C 194.121 199.475 193.835 200.53 192.551 201.95 C 190.819 203.863 190.548 203.896 188.893 202.399 C 187.91 201.509 186.239 199.028 185.179 196.886 L 183.251 192.991 L 182.228 195.745 C 178.46 205.893 176.538 210.148 173.537 214.982 C 171.666 217.997 170.227 220.555 170.339 220.667 C 170.451 220.779 173.909 220.433 178.024 219.899 C 195.823 217.586 214.433 222.424 246.126 237.603 C 256.918 242.771 266.763 247 268.005 247 C 270.246 247 270.257 246.927 269.549 236.941 C 269.157 231.408 268.416 224.095 267.902 220.691 C 265.846 207.061 265.7 204.807 266.823 204.112 C 267.562 203.656 266.491 201.21 263.676 196.925 C 256.903 186.615 254.566 179.219 254.533 168 C 254.517 162.775 254.848 156.588 255.267 154.25 C 256.128 149.446 256.099 149.434 250.173 152.065 M 241.744 162.126 C 240.788 162.661 239.327 164.41 238.499 166.012 C 235.901 171.035 232.008 189.17 232.006 196.25 L 232.005 203 L 225.866 203 C 217.594 203 196.093 206.735 193.082 208.696 C 190.724 210.23 190.711 210.312 192.582 211.68 C 193.639 212.454 195.63 213.359 197.005 213.691 C 201.452 214.766 225.237 223.762 235.005 228.063 C 247.567 233.594 256.984 237 259.715 237 C 263.381 237 264.231 233.954 263.024 225.141 C 261.77 215.978 258.856 203.987 253.102 184.31 C 246.933 163.211 245.345 160.111 241.744 162.126 M 240.085 180.888 C 238.937 185.776 237.746 193.313 237.438 197.638 C 236.495 210.862 236.967 210.154 229.585 209.398 C 222.427 208.665 207.335 209.782 208.65 210.948 C 209.12 211.365 215.805 214.22 223.505 217.293 C 231.205 220.367 241.957 224.718 247.398 226.964 C 252.839 229.21 257.508 230.83 257.773 230.565 C 258.746 229.592 254.621 210.081 250.254 195 C 247.785 186.475 245.276 177.813 244.679 175.75 C 244.081 173.688 243.272 172 242.882 172 C 242.491 172 241.233 175.999 240.085 180.888 M 272.308 210.625 C 274.929 229.071 276.285 247.089 275.228 249.411 C 272.61 255.156 265.638 253.959 246.692 244.514 L 233.878 238.127 L 230.183 241.813 C 220.762 251.213 207.991 256.506 190.52 258.252 L 179.178 259.386 L 178.581 262.37 C 176.165 274.451 170.263 287.025 167.032 286.978 C 163.067 286.92 158.875 280.706 155.47 269.838 L 153.695 264.177 L 149.19 273.202 C 142.301 287.002 133.337 295.354 112.978 306.94 C 105.392 311.257 106.46 312.134 120.102 312.791 C 128.144 313.178 131.033 312.882 137.034 311.06 C 141.014 309.851 145.867 308.006 147.819 306.96 C 151.812 304.819 154.005 305.685 154.005 309.401 C 154.005 312.302 147.962 324.729 144.633 328.675 C 143.159 330.421 142.302 332.043 142.729 332.279 C 143.156 332.515 146.802 332.136 150.831 331.437 C 160.031 329.84 173.94 323.063 183.505 315.517 C 191.957 308.85 192.811 308.406 194.314 309.909 C 195.213 310.808 194.552 312.878 191.496 318.741 C 189.301 322.953 187.356 326.758 187.173 327.195 C 186.679 328.381 207.327 327.092 216.43 325.369 C 232.18 322.387 250.743 314.697 263.909 305.701 C 272.66 299.722 283.549 287.701 287.552 279.602 C 289.622 275.414 291.92 271.486 292.658 270.873 C 294.196 269.597 298.25 272.343 306.356 280.153 L 311.206 284.826 L 310.546 280.163 C 307.754 260.435 294.569 233.319 277.402 212 C 272.645 206.092 271.624 205.817 272.308 210.625 M 72.595 274.292 C 71.214 276.103 68.828 280.265 67.294 283.542 C 64.747 288.98 64.504 290.503 64.506 301 C 64.508 312.441 64.529 312.544 68.643 321 C 72.543 329.016 77.612 335.385 82.792 338.78 C 84.873 340.144 85.206 340.109 86.483 338.39 C 87.756 336.676 87.441 336.035 83.097 331.5 C 77.226 325.371 74.792 321.343 72.089 313.282 C 68.1 301.384 70.421 286.546 77.58 278.182 C 80.55 274.712 80.984 273.681 79.982 272.474 C 78.008 270.095 75.285 270.765 72.595 274.292 M 48.305 279.401 C 44.537 282.571 41.505 289.461 39.951 298.38 C 37.795 310.764 41.894 326.688 48.989 333.485 C 51.8 336.179 52.156 336.277 53.66 334.773 C 55.164 333.268 55.046 332.779 52.107 328.342 C 44.05 316.178 43.602 296.27 51.1 283.562 C 52.516 281.162 52.871 279.584 52.245 278.466 C 51.444 277.036 50.986 277.144 48.305 279.401"
          fill="#D4AF37" fill-rule="evenodd"></path>
</svg>