<?xml version="1.0" encoding="UTF-8"?>
<svg version="1.1" viewBox="0 0 410 615" xmlns="http://www.w3.org/2000/svg">
    <path d="m107.4 9.765c-2.456 1.64-3.627 5.963-4.094 15.108-0.27 5.295-0.046 12.327 0.499 15.627s0.844 6.154 0.666 6.343-3.448-2.736-7.267-6.5c-19.938-19.651-46.229-31.917-55.096-25.706-2.022 1.416-2.276 2.268-1.885 6.335 0.592 6.163 5.601 13.68 16.711 25.079l8.566 8.789-9.039 1.061c-14.954 1.756-26.523 6.849-33.433 14.72-4.096 4.665-4.221 9.684-0.278 11.179 5.11 1.938 12.955 2.243 29.615 1.15 12.123-0.796 19.227-0.788 26.365 0.029 10.467 1.198 21.27 3.05 21.27 3.646 0 0.201-2.151 3.034-4.779 6.296-14.857 18.437-22.221 40.185-22.221 65.624 0 25.526 6.484 42.051 24.64 62.792 16.459 18.802 23.745 29.41 28.618 41.663 3.23 8.123 5.162 20.985 3.65 24.303-1.052 2.309-11.657 9.872-21.408 15.268-6.874 3.804-8.5 5.354-8.5 8.099 0 5.325 12.153 8.883 27.739 8.121 7.373-0.36 10.801-1.01 14.011-2.654 2.337-1.198 4.25-1.778 4.25-1.29 0 0.489-2.475 4.607-5.5 9.153s-5.5 9.061-5.5 10.034c0 3.765 11.022 5.134 20.661 2.568 6.147-1.636 14.913-5.553 21.497-9.604 4.729-2.91 4.761-2.915 3.679-0.541-0.6 1.318-0.8 3.554-0.445 4.969 0.581 2.314 1.125 2.573 5.377 2.564 8.431-0.019 28.56-2.051 35.231-3.558 3.575-0.807 10.245-2.648 14.821-4.09l8.321-2.623 9.179 2.224c11.264 2.728 21.851 7.656 27.741 12.912l4.438 3.961-3 3.168c-1.65 1.742-5.607 4.95-8.793 7.129l-5.792 3.961-7.708-3.449c-16.178-7.238-32.43-10.747-50.062-10.809-18.86-0.067-34.45 4.08-42.187 11.223-3.898 3.599-4.182 4.199-3.628 7.682 0.767 4.825 4.653 8.378 12.309 11.254 9.222 3.464 19.862 5.117 32.861 5.105 18.203-0.017 36.104-3.835 52.316-11.16l6.315-2.854 7.935 7.818c4.363 4.3 7.934 8.545 7.934 9.432 0 2.36-5.187 7.88-11.468 12.206l-5.485 3.778-8.091-3.698c-26.8-12.251-67.907-12.486-85.416-0.489-10.467 7.172-5.638 17.552 10.143 21.802 19.254 5.184 52.497 2.319 74.256-6.402l8.439-3.382 3.833 3.036c3.981 3.153 9.044 9.827 10.158 13.39 0.777 2.486-2.226 5.556-10.648 10.885l-5.78 3.657-2.435-1.916c-3.946-3.104-18.577-8.978-28.135-11.296-11.721-2.842-33.687-3.123-43.305-0.553-10.597 2.831-17.813 6.572-22.124 11.469-5.014 5.697-5.048 8.326-0.17 13.204 11.38 11.38 48.841 11.983 81.728 1.315 4.4-1.427 9.292-3.249 10.872-4.047 2.796-1.414 2.989-1.338 7.332 2.886 2.454 2.387 5.342 6.044 6.419 8.128 1.952 3.778 1.951 3.798-0.089 6.663-6.798 9.548-21.496 17.985-42.858 24.603-12.025 3.726-12.389 3.776-15 2.066-7.175-4.7-19.054-9.124-44.676-16.64-15.4-4.517-35.425-10.423-44.5-13.125-9.075-2.701-18.638-5.456-21.25-6.121-2.612-0.664-4.75-1.453-4.75-1.751 0-0.299 4.838-1.836 10.75-3.416s20.875-5.728 33.25-9.218c25.382-7.158 27.165-8.161 24.35-13.687-4.593-9.013-36.625-52.298-39.341-53.16-2.612-0.829-82.612 6.041-100.23 8.608-12.527 1.824-12.474 1.969 9.473 26.098 6.186 6.801 16.422 18.196 22.747 25.323 19.41 21.872 20.072 22.468 24.939 22.468 2.324 0 7.451 1.078 11.393 2.395s22.243 6.748 40.668 12.069c56.416 16.293 61.544 17.949 68.498 22.118 3.008 1.803 3.505 2.42 2.002 2.485-1.1 0.047-2.781 0.236-3.736 0.419-3.329 0.639-15.282-2.858-83.449-24.414-17.701-5.598-33.451-10.266-35-10.375l-2.815-0.197-0.259 49.62c-0.218 41.691-0.034 49.807 1.149 50.789 1.5 1.245 14.446 6.058 53.11 19.748 13.2 4.674 34.8 12.333 48 17.021 35.176 12.491 31.304 11.614 39.232 8.885 8.595-2.959 34.503-13.307 67.768-27.07 14.3-5.916 31.313-12.912 37.807-15.547s12.906-5.511 14.25-6.391l2.443-1.601v-48.86c0-48.012-0.035-48.87-1.999-49.383-1.099-0.288-2.212-0.178-2.473 0.244-0.261 0.421-0.511 21.72-0.557 47.33-0.062 34.775-0.386 46.814-1.277 47.552-2.263 1.873-116.03 48.163-118.37 48.163-1.082 0-1.324-9.488-1.324-51.863v-51.863l5.75-1.721c32.096-9.603 75.099-24.543 108.56-37.714 11.292-4.445 12.77-5.295 12.5-7.19-0.234-1.644-1.599-2.545-5.806-3.833-5.691-1.742-46.261-11.032-48.968-11.214-0.842-0.056-1.667 0.846-1.832 2.006-0.218 1.52 0.479 2.42 2.499 3.231 2.405 0.965 29.08 7.547 39.15 9.66 4.063 0.853 3.238 1.789-3.349 3.799-2.75 0.839-9.275 3.16-14.5 5.157-5.225 1.998-11.3 4.261-13.5 5.029-2.2 0.769-9.598 3.449-16.441 5.957-6.842 2.507-12.615 4.559-12.83 4.559-0.214 0 1.951-2.588 4.81-5.75 7.374-8.155 10.847-15.954 11.63-26.118 0.43-5.573 0.22-9.438-0.657-12.095-1.223-3.707-1.134-4.137 1.758-8.503 1.675-2.53 3.599-6.904 4.275-9.72 1.507-6.282 0.697-18.795-1.568-24.214-1.58-3.782-1.55-4.045 1.138-9.992 3.915-8.662 4.409-20.791 1.163-28.567l-2.278-5.459 2.385-4.806c3.494-7.043 3.945-16.603 1.133-24.05-2.22-5.882-10.775-15.726-13.665-15.726-0.788 0 0.587-2.41 3.215-5.636 2.524-3.1 5.532-7.574 6.682-9.943l2.093-4.306 7.911 7.442c8.618 8.107 11.933 9.322 13.866 5.08 1.355-2.976-1.719-19.604-5.664-30.637-6.207-17.357-17.835-37.742-28.727-50.36-5.025-5.822-5.047-5.878-3.365-8.5 6.968-10.867 10.413-20.73 12.621-36.14l1.648-11.5 14.567-0.152c15.117-0.159 18.8-0.991 18.8-4.248 0-4.443-6.672-9.062-22.5-15.576-4.953-2.039-4.168-2.585 7.797-5.422 15.433-3.661 22.209-7.516 21.533-12.254-0.281-1.975-1.877-2.839-10.83-5.863-11.226-3.792-24.94-10.783-32.722-16.681-2.628-1.991-10.628-8.664-17.778-14.828-19.549-16.852-32.576-24.545-51-30.119-8.219-2.487-10.475-2.729-26-2.79-13.689-0.054-18.357 0.301-23.965 1.82-9.92 2.688-22.355 7.874-29.959 12.494l-6.538 3.972-1.019-3.926c-0.561-2.16-1.499-5.84-2.085-8.177-4.563-18.197-17.298-42.791-22.128-42.735-0.718 9e-3 -1.801 0.346-2.406 0.75m1.977 21.235c0.251 8.623 1.157 18.756 2.042 22.838 2.645 12.201 0.357 12.34-9.547 0.578-14.878-17.667-38.435-33.995-50.756-35.179-4.522-0.434-5.116-0.272-5.116 1.396 0 3.097 8.109 14.22 17.903 24.558 8.27 8.729 9.749 9.853 14.889 11.318 6.225 1.774 15.539 7.373 17.092 10.274 0.596 1.113 0.621 2.389 0.065 3.271-0.778 1.234-1.389 1.163-4.18-0.49-12.787-7.572-14.49-8.068-27.269-7.94-10.014 0.101-13.324 0.553-20 2.733-7.548 2.464-17.326 8.542-18.239 11.336-0.654 2.002 5.364 2.404 23.739 1.586 33.247-1.48 58 2.301 58 8.86 0 0.417-2.233 3.441-4.963 6.721-16.375 19.677-24.042 40.286-24.217 65.1-0.101 14.291 1.296 22.113 5.9 33.04 4.332 10.283 8.95 16.907 22.309 32 11.847 13.385 18.721 23.445 22.933 33.564 3.443 8.269 6.038 17.573 6.038 21.646 0 1.535 0.338 2.778 0.75 2.764 1.529-0.052 7.402-9.935 9.862-16.595 4.095-11.084 4.256-11.379 6.244-11.379 2.399 0 3.562 1.472 5.134 6.5 2.333 7.462 7.289 19.5 8.028 19.5 1.225 0 4.867-9.392 6.66-17.174 0.928-4.029 2.024-7.722 2.435-8.206 0.411-0.485 3.625-0.818 7.142-0.742 15.202 0.329 33.847-5.721 41.977-13.622l3.732-3.626-3.732-1.393c-23.543-8.786-38.905-10.943-53.732-7.545-3.904 0.894-9.286 0.856-10.215-0.073-0.736-0.736-0.17-1.812 5.051-9.614 8.218-12.28 12.846-25.87 14.644-43.005 0.548-5.225 1.469-11.174 2.047-13.219 1.404-4.972 5.353-9.486 9-10.287 1.635-0.359 2.964-0.955 2.953-1.323-0.011-0.369-2.31-2.021-5.11-3.671-17.737-10.455-27.885-36.667-22.378-57.807 4.401-16.898 14.804-27.605 32.788-33.747l8.22-2.807-11.162-0.07c-18.03-0.112-32.996 3.667-47.388 11.965-10.642 6.136-14.212 7.966-15.539 7.966-2.328 0-3.757-3.291-7.041-16.222-3.317-13.06-10.99-31.384-15.4-36.778l-2.044-2.5 0.451 15.5m97.623 27.078c-11.946 2.114-24.946 10.855-30.671 20.624-9.888 16.873-5.757 41.839 9.34 56.436 7.392 7.148 12.405 10.23 21.739 13.363 13.786 4.628 31.493 2.821 45.503-4.643 4.076-2.172 8.013-3.717 8.75-3.435 1.712 0.657 1.657 5.313-0.161 13.577-3.109 14.136-1.311 27.074 5.075 36.5 6.286 9.279 6.18 9.187 7.988 6.941 5.376-6.676 11.106-24.008 12.044-36.432 0.374-4.961 1.205-9.738 1.846-10.614 1.795-2.455 8.971-3.393 21.047-2.752 13.209 0.7 13.083 0.139-1.374-6.136-12.57-5.456-16.126-7.88-16.126-10.992 0-2.818 2.998-4.096 19.914-8.483 6.278-1.628 11.8-3.346 12.271-3.817 0.474-0.474-2.847-2.262-7.458-4.014-16.293-6.189-32.68-16.885-50.864-33.201-3.984-3.575-6.864-5.6-6.4-4.5 8.485 20.11 6.893 37.862-4.562 50.875-8.259 9.383-18.064 13.706-31.096 13.71-24.182 8e-3 -41.021-15.82-41.048-38.585-0.011-8.837 1.539-14.169 6.255-21.519 7.776-12.117 26.498-17.008 40.542-10.59 7.711 3.524 11.642 7.426 14.985 14.875 3.578 7.973 3.146 16.082-1.277 23.946-7.073 12.576-24.336 15.808-34.899 6.534-1.906-1.674-4.117-4.304-4.914-5.845-2.911-5.628-1.149-17.415 3.134-20.97 0.769-0.638 3.035-1.723 5.035-2.411 8.495-2.92 19.722 4.006 17.948 11.073-0.826 3.292-3.308 3.023-5.363-0.583-6-10.531-19.376-3.462-16.074 8.495 1.309 4.741 6.393 8.414 12.677 9.158 6.621 0.785 12.858-2.128 16.83-7.859 2.454-3.541 2.859-5.08 2.861-10.875 3e-3 -5.901-0.378-7.292-3.028-11.065-1.667-2.374-5.223-5.672-7.903-7.329-4.012-2.48-6.178-3.078-12.28-3.386-9.816-0.495-14.603 1.378-21.116 8.265-8.805 9.31-10.469 21.974-4.492 34.18 3.124 6.38 8.054 11.179 15.536 15.121 4.81 2.534 6.231 2.785 15.786 2.785 9.471 0 11.058-0.274 16.19-2.794 3.416-1.678 7.71-5.004 10.744-8.324 8.862-9.697 11.116-22.749 6.57-38.056-3.091-10.409-13.305-20.873-25.241-25.861-4.697-1.962-17.028-2.667-24.263-1.387m-90.7 71.784c-19.386 6.698-30.385 25.913-27.345 47.769 3.38 24.301 23.812 41.499 49.045 41.28 9.624-0.083 15.396-1.749 15.803-4.562 0.415-2.871-1.195-3.231-9.093-2.035-19.082 2.891-38.597-6.813-46.254-22.999-9.581-20.251-2.619-42.706 16.087-51.89 5.245-2.575 7.033-2.925 14.957-2.925 7.985 0 9.733 0.348 15.5 3.087 7.809 3.708 14.457 9.977 18.428 17.379 2.308 4.304 3.023 7.104 3.378 13.25 0.551 9.504-0.793 14.721-5.441 21.123-5.18 7.135-10.238 9.161-22.865 9.161-11.199 0-15.265-1.458-21.389-7.67-5.627-5.708-6.582-8.384-6.597-18.49-0.013-8.578 0.177-9.431 2.986-13.411 7.459-10.568 22.681-11.801 31.898-2.584 8.043 8.043 8.415 19.133 0.81 24.108-5.575 3.647-8.387 4.004-13.548 1.721-3.707-1.64-4.699-2.657-5.532-5.671-1.248-4.52-0.022-8.231 3.107-9.409 2.855-1.075 7.368 1.08 8.28 3.953 0.447 1.409 1.348 1.971 2.821 1.761 3.268-0.465 3.255-4.115-0.027-7.788-5.221-5.842-16.214-4.914-19.191 1.621-0.615 1.349-1.118 4.516-1.118 7.038 0 8.17 5.873 14.478 14.811 15.907 11.991 1.917 23.636-10.454 21.74-23.097-1.263-8.418-6.248-15.26-13.988-19.2-13.395-6.817-30.141-1.776-36.77 11.068-3.244 6.285-3.639 18.415-0.841 25.831 6.929 18.371 28.991 26.345 49.033 17.723 12.751-5.485 20.702-22.295 17.873-37.79-2.273-12.457-11.763-25.461-22.622-31.001-10.122-5.164-24.442-6.538-33.936-3.258m133.87 22.203c-9.508 4.22-15.878 5.186-29.168 4.42-6.875-0.397-16.03-0.776-20.344-0.844-7.345-0.116-7.991 0.048-10.156 2.564-4.258 4.95-5.639 17.324-3.125 28.007 1.187 5.041 2.191 7.084 6.083 12.37 0.658 0.893 0.372 1.948-0.912 3.368-1.732 1.913-2.003 1.946-3.658 0.449-0.983-0.89-2.654-3.371-3.714-5.513l-1.928-3.895-1.023 2.754c-3.768 10.148-5.69 14.403-8.691 19.237-1.871 3.015-3.31 5.573-3.198 5.685s3.57-0.234 7.685-0.768c17.799-2.313 36.409 2.525 68.102 17.704 10.792 5.168 20.637 9.397 21.879 9.397 2.241 0 2.252-0.073 1.544-10.059-0.392-5.533-1.133-12.846-1.647-16.25-2.056-13.63-2.202-15.884-1.079-16.579 0.739-0.456-0.332-2.902-3.147-7.187-6.773-10.31-9.11-17.706-9.143-28.925-0.016-5.225 0.315-11.412 0.734-13.75 0.861-4.804 0.832-4.816-5.094-2.185m-8.429 10.061c-0.956 0.535-2.417 2.284-3.245 3.886-2.598 5.023-6.491 23.158-6.493 30.238l-1e-3 6.75h-6.139c-8.272 0-29.773 3.735-32.784 5.696-2.358 1.534-2.371 1.616-0.5 2.984 1.057 0.774 3.048 1.679 4.423 2.011 4.447 1.075 28.232 10.071 38 14.372 12.562 5.531 21.979 8.937 24.71 8.937 3.666 0 4.516-3.046 3.309-11.859-1.254-9.163-4.168-21.154-9.922-40.831-6.169-21.099-7.757-24.199-11.358-22.184m-1.659 18.762c-1.148 4.888-2.339 12.425-2.647 16.75-0.943 13.224-0.471 12.516-7.853 11.76-7.158-0.733-22.25 0.384-20.935 1.55 0.47 0.417 7.155 3.272 14.855 6.345 7.7 3.074 18.452 7.425 23.893 9.671s10.11 3.866 10.375 3.601c0.973-0.973-3.152-20.484-7.519-35.565-2.469-8.525-4.978-17.187-5.575-19.25-0.598-2.062-1.407-3.75-1.797-3.75-0.391 0-1.649 3.999-2.797 8.888m32.223 29.737c2.621 18.446 3.977 36.464 2.92 38.786-2.618 5.745-9.59 4.548-28.536-4.897l-12.814-6.387-3.695 3.686c-9.421 9.4-22.192 14.693-39.663 16.439l-11.342 1.134-0.597 2.984c-2.416 12.081-8.318 24.655-11.549 24.608-3.965-0.058-8.157-6.272-11.562-17.14l-1.775-5.661-4.505 9.025c-6.889 13.8-15.853 22.152-36.212 33.738-7.586 4.317-6.518 5.194 7.124 5.851 8.042 0.387 10.931 0.091 16.932-1.731 3.98-1.209 8.833-3.054 10.785-4.1 3.993-2.141 6.186-1.275 6.186 2.441 0 2.901-6.043 15.328-9.372 19.274-1.474 1.746-2.331 3.368-1.904 3.604s4.073-0.143 8.102-0.842c9.2-1.597 23.109-8.374 32.674-15.92 8.452-6.667 9.306-7.111 10.809-5.608 0.899 0.899 0.238 2.969-2.818 8.832-2.195 4.212-4.14 8.017-4.323 8.454-0.494 1.186 20.154-0.103 29.257-1.826 15.75-2.982 34.313-10.672 47.479-19.668 8.751-5.979 19.64-18 23.643-26.099 2.07-4.188 4.368-8.116 5.106-8.729 1.538-1.276 5.592 1.47 13.698 9.28l4.85 4.673-0.66-4.663c-2.792-19.728-15.977-46.844-33.144-68.163-4.757-5.908-5.778-6.183-5.094-1.375m98.683 44.892c-1.058 1.275-0.382 2.436 4.253 7.294 9.672 10.141 12.391 18.389 11.463 34.777-0.457 8.069-0.295 10.354 0.765 10.761 2.267 0.87 4.312-2.541 5.511-9.19 2.626-14.566-3.084-31.801-13.603-41.06-5.067-4.46-6.471-4.893-8.389-2.582m-26.986 7.293c0 0.564-0.264 1.716-0.588 2.558-0.407 1.062 0.435 1.971 2.75 2.965 5.489 2.357 11.27 8.125 14.821 14.786 6.093 11.432 4.97 25.361-3.061 37.969-3.363 5.28-3.564 6.452-1.259 7.336 3.592 1.379 10.728-9.15 13.404-19.774 1.297-5.151 0.785-16.857-0.994-22.756-1.993-6.608-8.634-15.584-14.273-19.293-5.641-3.71-10.8-5.521-10.8-3.791m-271.41 11.482c-1.381 1.811-3.767 5.973-5.301 9.25-2.547 5.438-2.79 6.961-2.788 17.458 2e-3 11.441 0.023 11.544 4.137 20 3.9 8.016 8.969 14.385 14.149 17.78 2.081 1.364 2.414 1.329 3.691-0.39 1.273-1.714 0.958-2.355-3.386-6.89-5.871-6.129-8.305-10.157-11.008-18.218-3.989-11.898-1.668-26.736 5.491-35.1 2.97-3.47 3.404-4.501 2.402-5.708-1.974-2.379-4.697-1.709-7.387 1.818m-24.29 5.109c-3.768 3.17-6.8 10.06-8.354 18.979-2.156 12.384 1.943 28.308 9.038 35.105 2.811 2.694 3.167 2.792 4.671 1.288 1.504-1.505 1.386-1.994-1.553-6.431-8.057-12.164-8.505-32.072-1.007-44.78 1.416-2.4 1.771-3.978 1.145-5.096-0.801-1.43-1.259-1.322-3.94 0.935m222.59 28.314c-4.032 3.033-9.777 6.895-12.766 8.582l-5.435 3.067 8.533 2.66c9.786 3.05 20.828 8.773 25.449 13.189l3.174 3.033 1.576-5.304c3.673-12.369 0.08-22.906-9.796-28.733l-3.405-2.009-7.33 5.515m-72.894 41.31c-15.267 2.119-28.631 8.323-27.789 12.901 0.697 3.795 18.523 9.524 33.109 10.641 14.488 1.109 38.199-3.098 51.763-9.185l6.099-2.737-3.341-1.797c-3.851-2.071-19.948-7.185-27.451-8.721-7.538-1.543-24.947-2.135-32.39-1.102m87.5 2.582c-2.2 1.886-5.854 4.624-8.12 6.084l-4.12 2.655 5.649 5.23c3.107 2.877 6.275 6.399 7.039 7.827 0.765 1.429 1.703 2.597 2.085 2.597s1.431-1.928 2.331-4.283c1.891-4.951 2.054-15.682 0.31-20.378l-1.174-3.161-4 3.429m-166 25.912c-0.55 0.199-9.775 1.06-20.5 1.913-37.452 2.979-69 6.016-69 6.642 0 0.347 5.512 6.68 12.25 14.073 6.737 7.394 19.405 21.432 28.15 31.197 11.518 12.862 16.337 17.587 17.489 17.145 1.607-0.616 28.483-8.228 55.111-15.609 7.975-2.21 15.926-4.46 17.67-5l3.169-0.982-7.113-10.199c-11.471-16.447-24.322-33.985-27.076-36.949-2.384-2.566-6.636-3.501-10.15-2.231m163.98 14.497c-2.156 2.207-5.626 5.196-7.712 6.641l-3.793 2.629 4.885 5.165c2.687 2.841 5.635 6.616 6.553 8.39 0.917 1.773 2.092 2.962 2.611 2.641 0.52-0.321 1.684-3.126 2.587-6.233 1.716-5.904 1.502-20.531-0.328-22.361-0.513-0.513-2.53 0.799-4.803 3.128m-89.159-0.593c-12.838 2.435-21.603 7.806-19.915 12.205 0.942 2.455 10.718 6.269 19.141 7.469 9.966 1.419 30.473 0.605 40.448-1.606 11.288-2.501 21.218-5.486 23.852-7.168 2.348-1.5 2.342-1.508-3-4.01-2.943-1.379-9.627-3.643-14.852-5.031-11.763-3.124-34.19-4.037-45.674-1.859m1.174 36.074c-15.986 3.008-26.685 9.195-25.012 14.464 0.666 2.099 8.416 5.464 16.47 7.151 7.883 1.651 33.292 0.527 44.625-1.974 10.695-2.36 25.417-7.083 25.417-8.153 0-0.942-9.766-5.63-16.849-8.089-13.574-4.712-30.731-6.018-44.651-3.399m85.5 4.023c-1.375 1.481-4.628 3.916-7.23 5.41l-4.729 2.717 3.567 3.427c1.962 1.884 4.437 5.114 5.5 7.176 1.063 2.063 2.112 3.75 2.332 3.75s1.13-2.201 2.024-4.891c1.084-3.265 1.526-7.447 1.33-12.586l-0.294-7.696-2.5 2.693m-190.76 78.61 0.26 45.131 20.5 7.314c54.027 19.274 105.24 37.425 105.6 37.425 0.219 0 0.399-22.869 0.399-50.821v-50.82l-8.25 0.387c-6.036 0.283-10.129-0.129-15.25-1.539-11.791-3.244-76.62-23.56-92.992-29.141-4.946-1.686-9.338-3.066-9.76-3.066-0.423 0-0.651 20.309-0.508 45.13"
          fill="#D4AF37" fill-rule="evenodd"/>
</svg>
